PathFileType	4	(X/Y/Z)	./resultDataOpenSim/trcMotMarkerGrf/sub06/qtm-05-07.trc
DataRate	CameraRate	NumFrames	NumMarkers	Units	OrigDataRate	OrigDataStartFrame	OrigNumFrames
250.000000	250.000000	10	24	m	250.000000	467	533
Frame#	Time	L.Toe.Tip			R.Toe.Tip			L.Ankle.Lat			R.Ankle.Lat			L.Ankle.Med			R.Ankle.Med			L.Heel			R.Heel			L.Knee.Lat			R.Knee.Lat			L.Knee.Med			R.Knee.Med			L.Thigh.Upper			R.Thigh.Upper			L.ASIS			R.ASIS			V.Sacral			L.Acromium			R.Acromium			C7			L.Elbow			R.Elbow			L.Wrist.Lat			R.Wrist.Lat
		X1	Y1	Z1	X2	Y2	Z2	X3	Y3	Z3	X4	Y4	Z4	X5	Y5	Z5	X6	Y6	Z6	X7	Y7	Z7	X8	Y8	Z8	X9	Y9	Z9	X10	Y10	Z10	X11	Y11	Z11	X12	Y12	Z12	X13	Y13	Z13	X14	Y14	Z14	X15	Y15	Z15	X16	Y16	Z16	X17	Y17	Z17	X18	Y18	Z18	X19	Y19	Z19	X20	Y20	Z20	X21	Y21	Z21	X22	Y22	Z22	X23	Y23	Z23	X24	Y24	Z24

467	1.864	1.6934301	0.033541106	-0.0035858171	1.4339583	0.084417998	0.1734282	1.5682222	0.06748836	-0.029599935	1.3726008	0.20596202	0.18222221	1.5645438	0.08318994	0.057740582	1.4121249	0.20195668	0.10315071	1.4921068	0.042345954	0.013352969	1.3276383	0.22892278	0.11458177	1.6502854	0.4343227	-0.050553268	1.6619498	0.44877894	0.22071354	1.6119311	0.43509181	0.066912338	1.6726275	0.42732171	0.086332041	1.5863707	0.82495526	-0.13084904	1.5386985	0.80015236	0.20884039	1.6510181	0.87231189	-0.078380762	1.6297966	0.86286511	0.16683253	1.4503766	0.93500814	0.036672592	1.5756779	1.347941	-0.1428401	1.5516714	1.3406145	0.22039638	1.4805898	1.3769478	0.031599448	1.5418903	1.0281654	-0.20087581	1.4911385	1.0223197	0.28044922	1.7099847	0.84734952	-0.2220479	1.6724674	0.85611693	0.28829728
468	1.868	1.6934688	0.033540015	-0.0036179576	1.4529798	0.083577403	0.17442042	1.568222	0.067651536	-0.029540191	1.3877134	0.20313646	0.18218385	1.5637051	0.083259912	0.057945775	1.4273276	0.19967834	0.10300349	1.4921736	0.042604482	0.013545714	1.3424914	0.22462239	0.11355542	1.6508764	0.43428239	-0.050555143	1.6726136	0.45159925	0.22011712	1.6121744	0.43539081	0.06709717	1.6830613	0.43096554	0.085805111	1.5915781	0.8256499	-0.13088249	1.5472453	0.80170428	0.2093982	1.6564127	0.87342386	-0.078829651	1.6360028	0.86459645	0.16615444	1.4555342	0.93611537	0.036776187	1.581296	1.3494477	-0.14287675	1.5572406	1.3416308	0.22021385	1.4861019	1.3779931	0.031495081	1.550133	1.029074	-0.20109699	1.4935412	1.0238946	0.27963666	1.7220506	0.85111856	-0.22040975	1.6726582	0.85498244	0.28911448
469	1.872	1.6935053	0.033533575	-0.0036469148	1.4722047	0.082691891	0.17537153	1.5682293	0.0678127	-0.029464554	1.4028821	0.20017679	0.18218034	1.5638823	0.083468095	0.057990641	1.4426323	0.19728795	0.10278606	1.4922431	0.042866909	0.013774629	1.3574001	0.22008955	0.11273105	1.6514163	0.43423206	-0.050585309	1.6831336	0.45437021	0.2194816	1.6128007	0.43567265	0.067205315	1.693424	0.43458415	0.085172438	1.5965922	0.82629546	-0.13094282	1.5548301	0.80311082	0.20963187	1.6616599	0.87445112	-0.079288785	1.6422212	0.86629032	0.16549208	1.4607054	0.93715575	0.036871244	1.5869204	1.3508981	-0.14289208	1.5628108	1.3425735	0.22005023	1.4916018	1.37897	0.031403572	1.5584239	1.0299861	-0.20125673	1.4960748	1.0253983	0.27886366	1.7341618	0.85491163	-0.21873191	1.6728114	0.8538837	0.2899279
470	1.876	1.6935405	0.033525388	-0.0036709109	1.4912864	0.081711137	0.17627474	1.56824	0.067977661	-0.029375277	1.4181324	0.1970727	0.18218698	1.5643963	0.083738476	0.057984014	1.4580358	0.19476744	0.10254163	1.4923235	0.043132712	0.014034735	1.3722537	0.21532489	0.11229429	1.6519201	0.43417496	-0.050635984	1.6935302	0.4570861	0.21880866	1.6136983	0.43594964	0.067259271	1.7036205	0.43815593	0.084437084	1.6014893	0.82688863	-0.1310155	1.561614	0.80445132	0.20968007	1.6666956	0.87538639	-0.079766137	1.6484099	0.86794573	0.16483866	1.4658918	0.93809897	0.03693576	1.5925533	1.3522852	-0.14288452	1.5683777	1.343439	0.21990573	1.4970935	1.379878	0.031319864	1.5667754	1.030917	-0.20135632	1.4988884	1.0268652	0.27816545	1.7460766	0.85876334	-0.21703616	1.6729289	0.85281446	0.2907369
471	1.88	1.6935778	0.033518105	-0.0036905024	1.5100265	0.080617396	0.17713222	1.5682518	0.068152492	-0.029276655	1.4334669	0.19381776	0.182186	1.5647882	0.084022117	0.057997957	1.4735544	0.19208996	0.10234497	1.4924174	0.043408503	0.014308883	1.3871463	0.21033559	0.11214464	1.652397	0.43412242	-0.050701075	1.7038345	0.45973644	0.21810341	1.6147711	0.43623668	0.06729019	1.7135301	0.44164964	0.083697255	1.6063413	0.82742078	-0.13106209	1.5683881	0.80577311	0.20977257	1.6716451	0.87624743	-0.08023645	1.6545528	0.86955798	0.16419364	1.4710547	0.93896358	0.03697959	1.5981904	1.3535996	-0.14286625	1.5739432	1.3442287	0.21977262	1.5025837	1.3807171	0.031240836	1.5751455	1.0318408	-0.20146871	1.5019656	1.0283107	0.27755054	1.7575779	0.86270381	-0.21534433	1.6730241	0.85176818	0.29153538
472	1.884	1.693619	0.033511978	-0.0037085507	1.5284833	0.079433277	0.17795716	1.5682671	0.068340127	-0.029173439	1.4488957	0.19041486	0.18217535	1.5650333	0.084306735	0.058037175	1.4891904	0.18926207	0.10221294	1.4925231	0.043702754	0.014576009	1.4021834	0.20512759	0.1121152	1.6528515	0.43408663	-0.050781175	1.7140656	0.46231812	0.21736866	1.6159751	0.43654703	0.06730722	1.7230805	0.44503416	0.083051487	1.6112076	0.82788077	-0.13100125	1.5756105	0.80706847	0.21002616	1.6766413	0.8770485	-0.080676403	1.6606643	0.87111922	0.16356546	1.4762136	0.93978506	0.037033368	1.6038225	1.3548364	-0.14285361	1.5795188	1.3449419	0.21964075	1.5080789	1.3814884	0.031161174	1.5834602	1.0327229	-0.20165447	1.5051316	1.029728	0.27697546	1.7687461	0.86671079	-0.21364985	1.673117	0.85073917	0.29232176
473	1.888	1.6936644	0.033505765	-0.0037287887	1.5468884	0.078191549	0.17876125	1.5682888	0.068539815	-0.029070069	1.4644471	0.18687261	0.18215996	1.5652772	0.084588074	0.058083181	1.5049395	0.18631618	0.10210671	1.4926372	0.044018157	0.014829721	1.4173416	0.19973184	0.11210642	1.6532834	0.43407506	-0.050884538	1.72422	0.4648353	0.21660164	1.617274	0.43688515	0.067306928	1.7322846	0.44829408	0.082509656	1.6161545	0.82827334	-0.13072098	1.5831545	0.80832631	0.21040941	1.681707	0.8777873	-0.081083017	1.6667777	0.87262081	0.16296197	1.4815984	0.9405282	0.037101718	1.6094469	1.3559997	-0.14285503	1.5851145	1.3455756	0.21950463	1.5135759	1.3821912	0.031073044	1.591691	1.0335485	-0.20190232	1.5081981	1.0311029	0.27637377	1.7798514	0.8707303	-0.21192878	1.6732176	0.84972469	0.29310709
474	1.892	1.6937125	0.033496975	-0.0037539429	1.5654962	0.076922878	0.17953227	1.568316	0.068749317	-0.02896832	1.4801495	0.18319652	0.18214036	1.5655895	0.084864896	0.058133489	1.520829	0.18327845	0.10198785	1.4927524	0.044351067	0.015085589	1.4324383	0.19421133	0.11211497	1.6536847	0.43408749	-0.051023522	1.7342687	0.46728298	0.21579117	1.6186339	0.43723775	0.067294472	1.7411957	0.45142254	0.082022483	1.6212069	0.82863016	-0.13018659	1.5907576	0.80958165	0.21083618	1.6867864	0.87845065	-0.081468512	1.6729193	0.87405334	0.16238547	1.4876443	0.94105753	0.037145124	1.6150703	1.3570923	-0.14286766	1.5907088	1.3461326	0.21936525	1.5190644	1.3828253	0.030974297	1.5998711	1.0343119	-0.20217496	1.5110564	1.0324169	0.27571011	1.7910462	0.8747305	-0.21017043	1.6733254	0.8487231	0.29391983
475	1.896	1.6937602	0.033481807	-0.0037848197	1.5844275	0.075667527	0.18023824	1.5683441	0.0689671	-0.028863886	1.4960169	0.17938854	0.18211393	1.5659296	0.085139628	0.058201864	1.5369359	0.18015778	0.10184966	1.4928619	0.044692391	0.015368758	1.4472707	0.18863238	0.11219453	1.6540442	0.43411514	-0.051207105	1.7441727	0.46964727	0.21492066	1.6200489	0.43757487	0.067281848	1.7498553	0.45441606	0.081551516	1.6262717	0.82898236	-0.12959199	1.598276	0.81087989	0.21123785	1.6917694	0.87901667	-0.081854845	1.6790904	0.87540691	0.16183416	1.4945599	0.94126656	0.037144856	1.6206998	1.3581036	-0.14288114	1.596197	1.3466268	0.21922369	1.5245446	1.3833959	0.030876959	1.6080371	1.0350125	-0.20245248	1.513725	1.0336491	0.27500342	1.8023341	0.87870456	-0.20837848	1.6734457	0.84773331	0.29478081
476	1.9	1.6938045	0.033458362	-0.0038203471	1.6036483	0.074473744	0.18085566	1.5683723	0.069193189	-0.028745954	1.512056	0.17545471	0.18208254	1.5662279	0.085416815	0.058299673	1.5533269	0.17695367	0.10170574	1.4929706	0.045029369	0.015701599	1.4619684	0.18299297	0.11234985	1.6543685	0.43414656	-0.051432825	1.7539112	0.47192218	0.21398135	1.6215322	0.43786453	0.067276888	1.758297	0.45728533	0.081073819	1.6311459	0.82930456	-0.12934386	1.6056583	0.81222524	0.21160114	1.6965121	0.87946172	-0.082266027	1.6852704	0.8766741	0.1613052	1.5018115	0.94126126	0.037184025	1.6263371	1.3590211	-0.14288302	1.6013732	1.3470828	0.21907624	1.5300279	1.3839054	0.030800804	1.6161968	1.0356597	-0.20271965	1.516384	1.0347919	0.27431148	1.8137272	0.88264257	-0.20655282	1.6735922	0.8467539	0.29566064
